<?xml version="1.0" encoding="UTF-8" standalone="no"?>
<!-- Created with Inkscape (http://www.inkscape.org/) -->

<svg
   xmlns:dc="http://purl.org/dc/elements/1.1/"
   xmlns:cc="http://creativecommons.org/ns#"
   xmlns:rdf="http://www.w3.org/1999/02/22-rdf-syntax-ns#"
   xmlns:svg="http://www.w3.org/2000/svg"
   xmlns="http://www.w3.org/2000/svg"
   xmlns:sodipodi="http://sodipodi.sourceforge.net/DTD/sodipodi-0.dtd"
   xmlns:inkscape="http://www.inkscape.org/namespaces/inkscape"
   width="50.782822mm"
   height="14.111111mm"
   viewBox="0 0 179.93914 49.999999"
   id="svg2"
   version="1.1"
   inkscape:version="0.91 r13725"
   sodipodi:docname="logo.svg"
   inkscape:export-filename="/home/carloratm/prj/woyd/woyd/static/img/logo.png"
   inkscape:export-xdpi="90"
   inkscape:export-ydpi="90">
  <defs
     id="defs4" />
  <sodipodi:namedview
     id="base"
     pagecolor="#ffffff"
     bordercolor="#666666"
     borderopacity="1.0"
     inkscape:pageopacity="0.0"
     inkscape:pageshadow="2"
     inkscape:zoom="4"
     inkscape:cx="66.93982"
     inkscape:cy="-35.933297"
     inkscape:document-units="px"
     inkscape:current-layer="layer1"
     showgrid="false"
     showborder="false"
     inkscape:window-width="1918"
     inkscape:window-height="1062"
     inkscape:window-x="0"
     inkscape:window-y="16"
     inkscape:window-maximized="0"
     inkscape:snap-global="false"
     fit-margin-top="0"
     fit-margin-left="0"
     fit-margin-right="0"
     fit-margin-bottom="0">
    <inkscape:grid
       type="xygrid"
       id="grid3336"
       units="cm"
       spacingx="35.433071"
       spacingy="35.433072"
       originx="1156.5564"
       originy="-907.31455" />
  </sodipodi:namedview>
  <metadata
     id="metadata7">
    <rdf:RDF>
      <cc:Work
         rdf:about="">
        <dc:format>image/svg+xml</dc:format>
        <dc:type
           rdf:resource="http://purl.org/dc/dcmitype/StillImage" />
        <dc:title></dc:title>
      </cc:Work>
    </rdf:RDF>
  </metadata>
  <g
     inkscape:label="Layer 1"
     inkscape:groupmode="layer"
     id="layer1"
     transform="translate(1156.5565,-95.047638)">
    <text
       xml:space="preserve"
       style="font-style:normal;font-variant:normal;font-weight:normal;font-stretch:normal;font-size:40px;line-height:125%;font-family:'Playfair Display SC';-inkscape-font-specification:'Playfair Display SC';letter-spacing:0px;word-spacing:0px;fill:#000000;fill-opacity:1;stroke:none;stroke-width:1px;stroke-linecap:butt;stroke-linejoin:miter;stroke-opacity:1"
       x="-936.78571"
       y="23.076488"
       id="text4188"
       sodipodi:linespacing="125%"><tspan
         sodipodi:role="line"
         id="tspan4190"
         x="-936.78571"
         y="23.076488" /></text>
    <path
       inkscape:connector-curvature="0"
       id="path4139"
       style="font-style:normal;font-variant:normal;font-weight:bold;font-stretch:normal;font-size:medium;line-height:125%;font-family:Tangerine;-inkscape-font-specification:'Tangerine Bold';letter-spacing:-10.92999363px;word-spacing:0px;fill:#346357;fill-opacity:1;stroke:none;stroke-width:1px;stroke-linecap:butt;stroke-linejoin:miter;stroke-opacity:1"
       d="m -1133.9839,122.47857 c 0.1192,-1.72747 0.089,-3.55917 -0.089,-5.49512 -0.1489,-1.96574 -0.2979,-3.85701 -0.4468,-5.67383 -0.1489,-1.8466 -0.2234,-3.51449 -0.2234,-5.00369 0,-1.51897 0.2383,-2.71033 0.7149,-3.57406 -1.0127,1.39984 -1.9658,2.78479 -2.8593,4.15485 -0.8637,1.34027 -1.7126,2.74011 -2.5465,4.19952 -0.834,1.45941 -1.653,3.00817 -2.4572,4.64628 -0.7744,1.60833 -1.5785,3.36558 -2.4125,5.27175 -0.4467,1.04243 -0.7446,1.80192 -0.8935,2.27846 -0.1191,0.47654 -0.3127,0.71481 -0.5808,0.71481 -0.2382,0 -0.4021,-0.10424 -0.4914,-0.31273 -0.06,-0.23827 0.03,-0.64035 0.268,-1.20624 0.834,-2.08487 1.5041,-4.16974 2.0105,-6.25461 0.5063,-2.08487 0.8339,-4.0655 0.9828,-5.94188 0.1489,-1.87638 0.1341,-3.61874 -0.045,-5.22707 -0.1788,-1.60833 -0.5362,-3.00817 -1.0723,-4.19952 -0.5063,-1.191355 -1.1913,-2.114654 -2.0551,-2.769899 -0.8339,-0.685029 -1.8317,-1.027543 -2.9932,-1.027543 -1.1318,0 -2.1296,0.238271 -2.9933,0.714812 -0.834,0.476542 -1.5488,1.116895 -2.1444,1.921059 -0.5659,0.774381 -0.9978,1.682791 -1.2956,2.725221 -0.2979,1.01265 -0.4468,2.08487 -0.4468,3.21666 -0.06,0.1787 -0.1638,0.28294 -0.3127,0.31273 -0.1192,0.0298 -0.1787,-0.0298 -0.1787,-0.1787 -0.06,-1.42963 0.1191,-2.7848 0.5361,-4.0655 0.4169,-1.31049 1.0126,-2.457169 1.787,-3.440036 0.7744,-0.982867 1.7275,-1.757248 2.8593,-2.323141 1.1615,-0.595677 2.4571,-0.893515 3.8867,-0.893515 1.8466,0 3.2912,0.580785 4.3336,1.742355 1.0722,1.16157 1.7721,2.740115 2.0998,4.735637 0.3574,1.96573 0.3574,4.25909 0,6.88007 -0.3574,2.62098 -1.0425,5.39087 -2.0551,8.30969 0.8041,-1.69768 1.6977,-3.44003 2.6805,-5.22706 0.9829,-1.78704 2.0253,-3.52939 3.1273,-5.22707 1.1318,-1.69768 2.3083,-3.30601 3.5294,-4.82499 1.2212,-1.548756 2.4572,-2.903921 3.7081,-4.065492 0.1489,-0.05957 0.2681,0.05957 0.3574,0.357407 0.089,0.297838 0.074,0.536109 -0.045,0.714812 -0.4765,0.208487 -0.8935,0.536109 -1.2509,0.982867 -0.5063,0.655246 -0.8637,1.489196 -1.0722,2.501846 -0.1787,0.98287 -0.283,2.08487 -0.3127,3.30601 0,1.19135 0.06,2.45716 0.1787,3.79744 0.1191,1.31049 0.2382,2.63587 0.3574,3.97614 0.1191,1.31049 0.2085,2.5912 0.268,3.84212 0.06,1.25092 0.03,2.3976 -0.089,3.44003 0.7446,-1.07221 1.5785,-2.09976 2.5018,-3.08262 0.9233,-0.98287 1.8615,-1.96574 2.8146,-2.94861 0.9531,-0.98286 1.8764,-1.96573 2.7699,-2.9486 0.8935,-1.01265 1.6828,-2.06998 2.3678,-3.17198 0.7148,-1.13178 1.2807,-2.32314 1.6977,-3.57406 0.4467,-1.28071 0.6701,-2.66566 0.6701,-4.15485 0,-0.982866 -0.1489,-1.757246 -0.4467,-2.323139 -0.2681,-0.565893 -0.6553,-0.84884 -1.1616,-0.84884 -0.3574,0 -0.6701,0.178703 -0.9382,0.536109 -0.2383,0.357407 -0.4765,0.759489 -0.7148,1.206246 -0.089,0.05957 -0.1787,0.05957 -0.2681,0 -0.089,-0.05957 -0.134,-0.163811 -0.134,-0.31273 0.3276,-0.893516 0.7893,-1.682788 1.385,-2.367817 0.6254,-0.685028 1.236,-1.027543 1.8317,-1.027543 0.9828,0 1.7125,0.387191 2.1891,1.161571 0.5063,0.77438 0.7595,1.727463 0.7595,2.85925 0,1.727463 -0.283,3.306003 -0.8489,4.735633 -0.5361,1.39984 -1.2509,2.72522 -2.1444,3.97614 -0.8935,1.22114 -1.9211,2.3976 -3.0826,3.52939 -1.1318,1.13179 -2.2934,2.27847 -3.4847,3.44004 -1.1914,1.16157 -2.3679,2.43755 -3.5294,3.71826 -1.4859,1.84319 -2.3216,3.10058 -3.7395,5.00527 -0.1787,0.20848 -0.3558,0.30097 -0.5941,0.30097 -0.1489,0 -0.2531,-0.0447 -0.3127,-0.13402 -0.03,-0.0893 -0.045,-0.20849 -0.045,-0.35741 0,-0.3604 0.107,-0.69449 0.134,-1.02754 z"
       sodipodi:nodetypes="cccsccscccsccsssccscccccccscsccscscccsccccccscsscccscsccsccscscccsccsccc" />
    <path
       inkscape:connector-curvature="0"
       id="path4141"
       style="font-style:normal;font-variant:normal;font-weight:bold;font-stretch:normal;font-size:medium;line-height:125%;font-family:Tangerine;-inkscape-font-specification:'Tangerine Bold';letter-spacing:-10.92999363px;word-spacing:0px;fill:#346357;fill-opacity:1;stroke:none;stroke-width:1px;stroke-linecap:butt;stroke-linejoin:miter;stroke-opacity:1"
       d="m -1140.584,122.75442 q 1.5637,0 2.3232,0.9382 0.7595,0.93819 0.7595,2.18911 0,1.74235 -0.7148,3.26133 -0.6702,1.4743 -1.6977,2.63587 -0.9829,1.1169 -2.1445,1.78703 -1.1615,0.62546 -2.0997,0.62546 -1.519,0 -2.3232,-0.89351 -0.7595,-0.93819 -0.7595,-2.36782 0,-1.2956 0.5362,-2.72522 0.5807,-1.42963 1.4743,-2.63587 0.9381,-1.20625 2.1444,-2.01041 1.2062,-0.80417 2.5018,-0.80417 z m -2.4571,10.05206 q 1.3849,0 2.3231,-1.42963 0.9829,-1.4743 0.9829,-4.02082 0,-1.34027 -0.5361,-2.23379 -0.5361,-0.89351 -1.5637,-0.89351 -1.4296,0 -2.3231,1.38494 -0.8935,1.38495 -0.8935,4.0655 0,1.56365 0.5361,2.36782 0.5808,0.75949 1.4743,0.75949 z" />
    <path
       inkscape:connector-curvature="0"
       id="path4143"
       style="font-style:normal;font-variant:normal;font-weight:bold;font-stretch:normal;font-size:medium;line-height:125%;font-family:Tangerine;-inkscape-font-specification:'Tangerine Bold';letter-spacing:-10.92999363px;word-spacing:0px;fill:#346357;fill-opacity:1;stroke:none;stroke-width:1px;stroke-linecap:butt;stroke-linejoin:miter;stroke-opacity:1"
       d="m -1128.2941,124.05002 c 0.1191,-0.29784 0.4468,-0.58078 0.9829,-0.84884 0.5361,-0.29784 1.0126,-0.44676 1.4296,-0.44676 0.2681,0 0.3723,0.10425 0.3127,0.31273 -0.6552,1.8466 -1.3105,3.64853 -1.9657,5.40577 -0.6255,1.72747 -1.2807,3.5145 -1.9657,5.3611 -1.4892,3.84212 -3.3507,6.67158 -5.5845,8.4884 -2.204,1.81681 -4.5569,2.72522 -7.0588,2.72522 -1.7274,0 -3.0826,-0.40208 -4.0655,-1.20625 -0.9828,-0.80416 -1.4743,-1.77214 -1.4743,-2.90392 0,-0.65525 0.2234,-1.2956 0.6702,-1.92106 0.4467,-0.62546 1.0573,-1.07222 1.8317,-1.34027 0.1191,-0.0298 0.2085,0 0.268,0.0893 0.06,0.0893 0.06,0.1787 0,0.26805 -0.4765,0.50633 -0.7148,1.14668 -0.7148,1.92106 0,1.25092 0.3872,2.26357 1.1616,3.03795 0.7744,0.77438 1.8913,1.16157 3.3507,1.16157 1.0424,0 1.9955,-0.16381 2.8592,-0.49143 0.8637,-0.32762 1.6679,-0.90841 2.4125,-1.74236 0.7744,-0.83394 1.519,-1.95084 2.2338,-3.35068 0.7148,-1.39984 1.4445,-3.15709 2.1891,-5.27174 0.3574,-0.98287 0.6701,-1.86149 0.9382,-2.63587 0.2978,-0.77438 0.5957,-1.62322 0.8935,-2.54652 -0.5659,0.89351 -1.1467,1.71257 -1.7423,2.45717 -0.5957,0.74459 -1.2063,1.38495 -1.8317,1.92105 -0.5957,0.53611 -1.1765,0.95309 -1.7424,1.25093 -0.5659,0.29784 -1.0871,0.44675 -1.5637,0.44675 -0.5956,0 -1.0275,-0.1787 -1.2956,-0.5361 -0.268,-0.35741 -0.402,-0.84884 -0.402,-1.47431 0,-1.04243 0.2085,-2.23378 0.6254,-3.57406 0.4468,-1.37006 1.0425,-2.68055 1.7871,-3.93147 -0.3277,0.20849 -0.6255,0.40208 -0.8936,0.58079 -0.268,0.1787 -0.5212,0.38719 -0.7594,0.62546 -0.089,0.0596 -0.1788,0.0447 -0.2681,-0.0447 -0.06,-0.11913 -0.06,-0.22338 0,-0.31273 0.2085,-0.20848 0.4914,-0.43186 0.8488,-0.67013 0.3574,-0.26806 0.7446,-0.52122 1.1616,-0.75949 l 1.2509,-0.71481 c 0.4468,-0.23828 0.8787,-0.44676 1.2956,-0.62547 0.2979,0 0.4248,0.11836 0.3653,0.38642 -0.4766,0.59567 -0.9163,1.28148 -1.3035,2.02608 -0.3574,0.71481 -0.6701,1.44451 -0.9382,2.18911 -0.268,0.71481 -0.4765,1.42962 -0.6254,2.14444 -0.1192,0.71481 -0.1787,1.35516 -0.1787,1.92106 0,0.83394 0.268,1.25092 0.8041,1.25092 0.4766,0 1.0425,-0.29784 1.6977,-0.89352 0.6553,-0.59567 1.2956,-1.32538 1.9211,-2.18911 0.6552,-0.89352 1.2509,-1.83171 1.787,-2.81458 0.5659,-1.01265 0.9978,-1.92105 1.2956,-2.72522 z"
       sodipodi:nodetypes="ccsccccsssscscsssscscccscssssccsccccsccccccsssccc" />
    <path
       inkscape:connector-curvature="0"
       id="path4145"
       style="font-style:normal;font-variant:normal;font-weight:bold;font-stretch:normal;font-size:medium;line-height:125%;font-family:Tangerine;-inkscape-font-specification:'Tangerine Bold';letter-spacing:-10.92999363px;word-spacing:0px;fill:#346357;fill-opacity:1;stroke:none;stroke-width:1px;stroke-linecap:butt;stroke-linejoin:miter;stroke-opacity:1"
       d="m -1099.9178,98.54153 c 0.4468,0 0.8042,0.119137 1.0723,0.35741 0.2978,0.238273 0.5063,0.551003 0.6254,0.93819 0.1191,0.38719 0.1488,0.83395 0.089,1.34027 -0.059,0.47655 -0.2083,0.95309 -0.4468,1.42963 -0.059,0.0596 -0.1338,0.0894 -0.2234,0.0894 -0.089,-0.0298 -0.1489,-0.10426 -0.1787,-0.22338 0.059,-0.44675 -0.06,-0.77438 -0.3574,-0.98287 -0.2978,-0.23827 -0.7148,-0.3574 -1.2509,-0.3574 -1.6083,0 -3.1258,0.28611 -4.6463,1.60833 -4.231,4.13493 -7.0369,9.76549 -8.9076,15.27773 -1.102,3.39536 -2.0998,7.44596 -2.9933,12.15181 -0.1489,0.65525 -0.1639,1.22114 -0.045,1.69768 0.1191,0.44676 0.3425,0.67014 0.6701,0.67014 0.3276,0 0.6403,-0.13403 0.9382,-0.40208 0.2978,-0.26805 0.5658,-0.61057 0.8041,-1.02754 0.059,-0.0596 0.1338,-0.0596 0.2234,0 0.1191,0.0595 0.1638,0.14888 0.1341,0.26805 -0.1489,0.29784 -0.3723,0.61057 -0.6702,0.93819 -0.2681,0.32763 -0.5808,0.64036 -0.9382,0.93819 -0.3276,0.26806 -0.685,0.49144 -1.0722,0.67014 -0.3574,0.1787 -0.685,0.26805 -0.9829,0.26805 -0.6552,0 -1.1168,-0.23827 -1.3849,-0.71481 -0.2681,-0.47654 -0.3723,-1.01265 -0.3127,-1.60833 0.059,-0.50632 0.1338,-0.98286 0.2233,-1.42962 0.089,-0.44676 0.1937,-0.9233 0.3128,-1.42963 -0.5957,1.28071 -1.4296,2.3976 -2.5019,3.35069 -1.0722,0.9233 -2.1295,1.53387 -3.172,1.8317 -0.685,0 -1.236,-0.25316 -1.653,-0.75948 -0.4169,-0.50633 -0.6254,-1.16157 -0.6254,-1.96574 0,-1.16157 0.2085,-2.26357 0.6254,-3.30601 0.417,-1.07221 0.9829,-2.0104 1.6977,-2.81457 0.7148,-0.80417 1.5636,-1.44452 2.5465,-1.92106 0.9829,-0.47654 2.0402,-0.71481 3.172,-0.71481 0.6255,0 1.1765,0.10424 1.653,0.31273 0.5361,-1.60833 1.1765,-3.27622 1.9211,-5.00369 0.7446,-1.75725 1.5195,-3.73499 2.413,-5.40288 2.1486,-4.17893 3.9469,-7.10625 6.9414,-10.36629 1.0424,-1.13179 2.0997,-2.0253 3.1719,-2.68054 1.0723,-0.685033 2.1147,-1.02755 3.1273,-1.02755 z m -23.5612,33.90754 c 0.3276,0 0.7148,-0.16381 1.1615,-0.49143 0.4468,-0.35741 0.9085,-0.81906 1.385,-1.38495 0.4765,-0.59568 0.9233,-1.26582 1.3403,-2.01041 0.4169,-0.77438 0.7743,-1.59344 1.0722,-2.45717 0.1191,-0.26805 0.2234,-0.53611 0.3127,-0.80417 0.089,-0.29783 0.1638,-0.58078 0.2234,-0.84884 -0.1191,-0.35741 -0.3574,-0.61057 -0.7148,-0.75948 -0.3277,-0.17871 -0.7,-0.26806 -1.1169,-0.26806 -0.6255,0 -1.236,0.1936 -1.8317,0.58079 -0.5957,0.35741 -1.1169,0.86373 -1.5637,1.51897 -0.4467,0.65525 -0.819,1.42963 -1.1169,2.32314 -0.2681,0.89352 -0.4021,1.87639 -0.4021,2.9486 0,0.47655 0.1043,0.87863 0.3128,1.20625 0.2383,0.29784 0.551,0.44676 0.9382,0.44676 z"
       sodipodi:nodetypes="ccscccccsccccscccccccssccccccscssscccccccscccccccscccscs" />
    <text
       xml:space="preserve"
       style="font-style:normal;font-weight:normal;font-size:20.71571159px;line-height:80.00000119%;font-family:sans-serif;letter-spacing:-1.03578544px;word-spacing:1.10713959px;fill:#808080;fill-opacity:1;stroke:none;stroke-width:1px;stroke-linecap:butt;stroke-linejoin:miter;stroke-opacity:1"
       x="-1104.8712"
       y="118.94813"
       id="text4192"
       sodipodi:linespacing="80.000001%"><tspan
         sodipodi:role="line"
         id="tspan4194"
         x="-1104.8712"
         y="118.94813"
         style="font-style:normal;font-variant:normal;font-weight:normal;font-stretch:normal;font-size:20.71571159px;line-height:80.00000119%;font-family:'Playfair Display SC';-inkscape-font-specification:'Playfair Display SC';letter-spacing:-1.03578544px;word-spacing:1.10713959px;fill:#808080">Wedding of</tspan><tspan
         sodipodi:role="line"
         x="-1104.8712"
         y="135.52069"
         style="font-style:normal;font-variant:normal;font-weight:normal;font-stretch:normal;font-size:20.71571159px;line-height:80.00000119%;font-family:'Playfair Display SC';-inkscape-font-specification:'Playfair Display SC';letter-spacing:-1.03578544px;word-spacing:1.10713959px;fill:#808080"
         id="tspan4196">Your dreams</tspan></text>
  </g>
</svg>
