<svg xmlns="http://www.w3.org/2000/svg" width="191.935" height="53.333" viewBox="0 0 179.93914 49.999999"><text style="line-height:125%;-inkscape-font-specification:'Playfair Display SC'" x="-936.786" y="23.076" font-weight="400" font-size="40" font-family="Playfair Display SC" letter-spacing="0" word-spacing="0" transform="translate(1156.556 -95.048)"/><path style="line-height:125%;-inkscape-font-specification:'Tangerine Bold'" d="M22.572 27.43c.12-1.727.09-3.559-.089-5.495a923.216 923.216 0 0 0-.447-5.673 62.802 62.802 0 0 1-.223-5.004c0-1.519.238-2.71.715-3.574a104.279 104.279 0 0 0-2.86 4.155 92.146 92.146 0 0 0-2.546 4.2 83.787 83.787 0 0 0-2.457 4.646 160.42 160.42 0 0 0-2.413 5.271c-.446 1.043-.744 1.802-.893 2.279-.12.476-.313.715-.581.715-.238 0-.402-.105-.491-.313-.06-.238.03-.64.268-1.206a46.183 46.183 0 0 0 2.01-6.255c.506-2.085.834-4.066.983-5.942.149-1.876.134-3.619-.045-5.227s-.536-3.008-1.072-4.2c-.507-1.19-1.192-2.114-2.055-2.77-.834-.684-1.832-1.027-2.994-1.027-1.131 0-2.13.238-2.993.715a6.93 6.93 0 0 0-2.144 1.92C1.679 5.42 1.247 6.33.949 7.372a11.342 11.342 0 0 0-.447 3.217c-.06.179-.164.283-.312.313-.12.03-.18-.03-.18-.18-.06-1.429.12-2.784.537-4.065.417-1.31 1.013-2.457 1.787-3.44A8.344 8.344 0 0 1 5.194.893C6.353.297 7.65 0 9.08 0c1.847 0 3.291.58 4.334 1.742 1.072 1.162 1.772 2.74 2.1 4.736.357 1.965.357 4.259 0 6.88-.358 2.62-1.043 5.39-2.056 8.31a97.262 97.262 0 0 1 2.68-5.228 83.544 83.544 0 0 1 3.128-5.227 67.107 67.107 0 0 1 3.53-4.825c1.22-1.548 2.457-2.904 3.708-4.065.148-.06.268.06.357.357.089.298.074.536-.045.715a3.28 3.28 0 0 0-1.251.983c-.506.655-.864 1.49-1.072 2.502a21.502 21.502 0 0 0-.313 3.306c0 1.191.06 2.457.179 3.797.119 1.31.238 2.636.357 3.976.12 1.31.209 2.592.268 3.842.06 1.251.03 2.398-.089 3.44a26.97 26.97 0 0 1 2.502-3.082c.923-.983 1.862-1.966 2.815-2.949a125.57 125.57 0 0 0 2.77-2.948 23.721 23.721 0 0 0 2.367-3.172 16.362 16.362 0 0 0 1.698-3.574c.447-1.281.67-2.666.67-4.155 0-.983-.149-1.758-.447-2.323-.268-.566-.655-.85-1.161-.85-.358 0-.67.18-.938.537-.239.357-.477.76-.715 1.206a.223.223 0 0 1-.268 0c-.09-.06-.134-.164-.134-.313a7.512 7.512 0 0 1 1.385-2.367C36.064.566 36.675.223 37.27.223c.983 0 1.713.387 2.19 1.162.506.774.759 1.727.759 2.859 0 1.727-.283 3.306-.849 4.735a17.73 17.73 0 0 1-2.144 3.977 28.125 28.125 0 0 1-3.083 3.529 387.801 387.801 0 0 1-3.485 3.44c-1.191 1.162-2.367 2.438-3.529 3.718-1.486 1.843-2.322 3.1-3.74 5.006-.178.208-.355.3-.594.3-.148 0-.253-.044-.312-.133a1.154 1.154 0 0 1-.045-.358c0-.36.107-.694.134-1.027z" font-weight="700" font-family="Tangerine" letter-spacing="-10.93" word-spacing="0" fill="#346357"/><path style="line-height:125%;-inkscape-font-specification:'Tangerine Bold'" d="M15.972 27.706q1.564 0 2.323.939.76.938.76 2.189 0 1.742-.715 3.261-.67 1.474-1.698 2.636-.983 1.117-2.144 1.787-1.162.625-2.1.625-1.519 0-2.323-.893-.76-.938-.76-2.368 0-1.296.536-2.725.581-1.43 1.475-2.636.938-1.206 2.144-2.01 1.206-.805 2.502-.805zm-2.457 10.052q1.385 0 2.323-1.43.983-1.473.983-4.02 0-1.34-.536-2.234-.536-.893-1.564-.893-1.43 0-2.323 1.385-.894 1.385-.894 4.065 0 1.564.537 2.368.58.76 1.474.76z" font-weight="700" font-family="Tangerine" letter-spacing="-10.93" word-spacing="0" fill="#346357"/><path style="line-height:125%;-inkscape-font-specification:'Tangerine Bold'" d="M28.262 29.002c.119-.298.447-.58.983-.849.536-.298 1.012-.447 1.43-.447.267 0 .372.105.312.313a361.115 361.115 0 0 1-1.966 5.406 731.522 731.522 0 0 1-1.965 5.361c-1.49 3.842-3.351 6.672-5.585 8.488C19.267 49.091 16.914 50 14.412 50c-1.727 0-3.082-.402-4.065-1.207-.983-.804-1.474-1.772-1.474-2.904 0-.655.223-1.295.67-1.92.446-.626 1.057-1.073 1.831-1.34.12-.03.209 0 .268.088.06.09.06.18 0 .268-.476.507-.714 1.147-.714 1.922 0 1.25.387 2.263 1.161 3.038.775.774 1.892 1.161 3.351 1.161 1.042 0 1.995-.164 2.86-.491.863-.328 1.667-.909 2.412-1.743.774-.834 1.519-1.95 2.233-3.35.715-1.4 1.445-3.157 2.19-5.272.357-.983.67-1.862.938-2.636.298-.774.595-1.623.893-2.547a27.408 27.408 0 0 1-1.742 2.458 14.214 14.214 0 0 1-1.832 1.92c-.595.537-1.176.954-1.742 1.252-.566.297-1.087.446-1.564.446-.595 0-1.027-.178-1.295-.536-.268-.357-.402-.849-.402-1.474 0-1.042.208-2.234.625-3.574a19.463 19.463 0 0 1 1.787-3.932c-.328.209-.625.403-.894.581a4.98 4.98 0 0 0-.759.626c-.089.06-.179.044-.268-.045-.06-.12-.06-.223 0-.313.208-.208.491-.432.849-.67.357-.268.744-.521 1.161-.76l1.251-.714c.447-.238.879-.447 1.296-.626.298 0 .425.119.365.387a12.443 12.443 0 0 0-1.303 2.026c-.358.715-.67 1.444-.939 2.189-.268.715-.476 1.43-.625 2.144-.12.715-.179 1.356-.179 1.921 0 .834.268 1.251.804 1.251.477 0 1.043-.297 1.698-.893.655-.596 1.296-1.326 1.921-2.19a24.988 24.988 0 0 0 1.787-2.814c.566-1.012.998-1.92 1.296-2.725zM56.638 3.494c.447 0 .804.119 1.073.357.297.238.506.55.625.938.119.387.149.834.089 1.34a4.394 4.394 0 0 1-.447 1.43.302.302 0 0 1-.223.09c-.09-.03-.15-.105-.179-.224.059-.447-.06-.774-.357-.983-.298-.238-.715-.357-1.251-.357-1.609 0-3.126.286-4.647 1.608-4.23 4.135-7.036 9.766-8.907 15.278-1.102 3.395-2.1 7.446-2.993 12.152-.15.655-.164 1.22-.045 1.697.119.447.342.67.67.67.327 0 .64-.134.938-.402a4.11 4.11 0 0 0 .804-1.027c.059-.06.134-.06.223 0 .12.06.164.149.134.268-.148.298-.372.61-.67.938a6.98 6.98 0 0 1-.938.938 4.984 4.984 0 0 1-1.072.67c-.358.18-.685.268-.983.268-.655 0-1.117-.238-1.385-.714-.268-.477-.372-1.013-.313-1.609.06-.506.134-.983.224-1.43.089-.446.193-.923.312-1.429a10.194 10.194 0 0 1-2.501 3.35c-1.073.924-2.13 1.535-3.172 1.832-.685 0-1.236-.253-1.653-.759-.417-.506-.626-1.162-.626-1.966a8.82 8.82 0 0 1 .626-3.306 9.224 9.224 0 0 1 1.697-2.814 8.097 8.097 0 0 1 2.547-1.921 7.175 7.175 0 0 1 3.172-.715c.625 0 1.176.104 1.653.313a63.008 63.008 0 0 1 1.92-5.004c.745-1.757 1.52-3.735 2.414-5.403 2.148-4.179 3.947-7.106 6.941-10.366 1.043-1.132 2.1-2.026 3.172-2.68 1.072-.686 2.115-1.028 3.127-1.028zM33.077 37.4c.328 0 .715-.164 1.162-.491.446-.358.908-.82 1.385-1.385.476-.596.923-1.266 1.34-2.01a16.57 16.57 0 0 0 1.072-2.458c.12-.268.223-.536.313-.804.089-.298.164-.58.223-.849a1.205 1.205 0 0 0-.715-.76 2.295 2.295 0 0 0-1.117-.267c-.625 0-1.236.193-1.831.58-.596.358-1.117.864-1.564 1.52-.447.655-.819 1.429-1.117 2.322-.268.894-.402 1.877-.402 2.95 0 .476.104.878.313 1.205.238.298.55.447.938.447z" font-weight="700" font-family="Tangerine" letter-spacing="-10.93" word-spacing="0" fill="#346357"/><text style="line-height:80.00000119%" x="-1104.871" y="118.948" font-weight="400" font-size="20.716" font-family="sans-serif" letter-spacing="-1.036" word-spacing="1.107" fill="gray" transform="translate(1156.556 -95.048)"><tspan x="-1104.871" y="118.948" style="line-height:80.00000119%;-inkscape-font-specification:'Playfair Display SC'" font-family="Playfair Display SC">Wedding of</tspan><tspan x="-1104.871" y="135.521" style="line-height:80.00000119%;-inkscape-font-specification:'Playfair Display SC'" font-family="Playfair Display SC">Your dreams</tspan></text></svg>